<svg width="14" height="25" viewBox="0 0 14 25" fill="none" xmlns="http://www.w3.org/2000/svg">
<path d="M12.8724 2.02445C12.9807 1.90989 13.0653 1.77512 13.1215 1.62785C13.1777 1.48057 13.2043 1.32368 13.1998 1.16611C13.1954 1.00855 13.1599 0.853409 13.0955 0.709546C13.0311 0.565683 12.939 0.435917 12.8244 0.327655C12.7099 0.219393 12.5751 0.134757 12.4278 0.0785781C12.2805 0.0223995 12.1236 -0.00422135 11.9661 0.000235862C11.8085 0.00469308 11.6534 0.0401409 11.5095 0.104555C11.3656 0.16897 11.2359 0.26109 11.1276 0.375655L0.927621 11.1757C0.716977 11.3985 0.599609 11.6934 0.599609 12.0001C0.599609 12.3067 0.716977 12.6017 0.927621 12.8245L11.1276 23.6257C11.2352 23.7427 11.3649 23.8373 11.5093 23.9038C11.6537 23.9703 11.8099 24.0074 11.9687 24.0131C12.1276 24.0187 12.286 23.9928 12.4348 23.9367C12.5835 23.8806 12.7196 23.7955 12.8352 23.6863C12.9508 23.5772 13.0435 23.4462 13.1081 23.3009C13.1726 23.1556 13.2076 22.9989 13.2111 22.84C13.2145 22.681 13.1864 22.523 13.1282 22.375C13.0701 22.2271 12.9831 22.0921 12.8724 21.9781L3.45002 12.0001L12.8724 2.02445Z" fill="#276B81"/>
</svg>
