<svg width="22" height="22" viewBox="0 0 22 22" fill="none" xmlns="http://www.w3.org/2000/svg">
<path d="M21.9503 0.943319C22.0003 0.818381 22.0126 0.681513 21.9855 0.549683C21.9585 0.417853 21.8933 0.296859 21.7982 0.2017C21.703 0.106541 21.582 0.0414026 21.4502 0.0143598C21.3184 -0.0126829 21.1815 -0.000440623 21.0566 0.049569L1.05444 8.05069H1.05306L0.43156 8.29819C0.313847 8.34515 0.211403 8.42373 0.135544 8.52525C0.0596857 8.62677 0.013365 8.74728 0.00169872 8.87348C-0.00996752 8.99967 0.0134748 9.12664 0.0694361 9.24034C0.125397 9.35405 0.2117 9.45008 0.31881 9.51782L0.88256 9.87532L0.883935 9.87807L7.75206 14.2478L12.1218 21.1159L12.1246 21.1187L12.4821 21.6824C12.55 21.7891 12.6461 21.875 12.7597 21.9306C12.8733 21.9862 13.0001 22.0094 13.1261 21.9976C13.252 21.9858 13.3723 21.9395 13.4736 21.8638C13.5749 21.788 13.6534 21.6858 13.7003 21.5683L21.9503 0.943319ZM19.4299 3.54207L9.12568 13.8463L8.83006 13.3816C8.77589 13.2963 8.7036 13.224 8.61831 13.1698L8.15356 12.8742L18.4578 2.56994L20.0776 1.92232L19.4313 3.54207H19.4299Z" fill="#88BFD0"/>
</svg>
